<svg width="332" height="105" viewBox="0 0 332 105" fill="none" xmlns="http://www.w3.org/2000/svg">
<g clip-path="url(#clip0_3_6)">
<path d="M98.7101 26.5675C98.6976 26.5454 98.688 26.5228 98.6749 26.5008C98.6693 26.4915 98.6624 26.4831 98.6567 26.4738C97.9724 25.3595 96.9872 24.4386 95.8029 23.8062L53.7488 1.35604C52.6029 0.749065 51.3124 0.43042 50.0001 0.43042C48.6878 0.43042 47.3973 0.749065 46.2514 1.35604L4.19642 23.8064C3.00763 24.4418 2.01972 25.3677 1.33528 26.4878C1.32792 26.5 1.31906 26.511 1.31182 26.5234C1.30016 26.5431 1.29175 26.5637 1.28055 26.5837C0.6384 27.6667 0.300431 28.8882 0.299103 30.1309V74.8691C0.300157 76.1565 0.661616 77.4206 1.34649 78.5319C2.03136 79.6432 3.01505 80.5618 4.1969 81.1938L46.2519 103.644C47.3112 104.206 48.4965 104.521 49.7094 104.561C49.7963 104.567 49.8829 104.575 49.9714 104.576H50.006C50.1264 104.576 50.2451 104.569 50.3627 104.559C51.551 104.509 52.7104 104.195 53.7484 103.644L95.8029 81.1938C96.9848 80.5619 97.9686 79.6433 98.6535 78.532C99.3384 77.4206 99.6998 76.1566 99.7007 74.8691V30.1309C99.6995 28.882 99.3583 27.6545 98.7101 26.5675ZM49.9999 7.68078L88.1088 28.0247L73.4754 35.9144L34.9176 15.7322L49.9999 7.68078ZM50.4348 48.3371L11.9496 27.9934L27.0795 19.9166L65.6765 40.1194L50.4348 48.3371ZM53.8812 95.2473L54.2573 54.6222L69.6042 46.3476V63.6166C69.6042 64.5789 70.007 65.5017 70.724 66.1822C71.4409 66.8626 72.4134 67.2449 73.4273 67.2449C74.4413 67.2449 75.4137 66.8626 76.1307 66.1822C76.8477 65.5017 77.2505 64.5789 77.2505 63.6166V42.225L92.0544 34.2433V74.8691L53.8812 95.2473Z" fill="#E02A63"/>
</g>
<path d="M138.273 45.5547H126.414V53.8047H137.312V59.9453H126.414V73H118.844V39.3906H138.273V45.5547ZM161.617 73H154.609V69.5547H154.516C152.906 72.2422 150.523 73.5859 147.367 73.5859C145.039 73.5859 143.203 72.9297 141.859 71.6172C140.531 70.2891 139.867 68.5234 139.867 66.3203C139.867 61.6641 142.625 58.9766 148.141 58.2578L154.656 57.3906C154.656 54.7656 153.234 53.4531 150.391 53.4531C147.531 53.4531 144.812 54.3047 142.234 56.0078V50.4297C143.266 49.8984 144.672 49.4297 146.453 49.0234C148.25 48.6172 149.883 48.4141 151.352 48.4141C158.195 48.4141 161.617 51.8281 161.617 58.6562V73ZM154.656 63.25V61.6328L150.297 62.1953C147.891 62.5078 146.688 63.5938 146.688 65.4531C146.688 66.2969 146.977 66.9922 147.555 67.5391C148.148 68.0703 148.945 68.3359 149.945 68.3359C151.336 68.3359 152.469 67.8594 153.344 66.9062C154.219 65.9375 154.656 64.7188 154.656 63.25ZM191.523 73H182.641L174.977 61.0938H174.883V73H167.477V37.4688H174.883V60.0859H174.977L182.125 49H190.914L182.312 60.2734L191.523 73ZM215.195 63.1094H199.539C199.789 66.5938 201.984 68.3359 206.125 68.3359C208.766 68.3359 211.086 67.7109 213.086 66.4609V71.8047C210.867 72.9922 207.984 73.5859 204.438 73.5859C200.562 73.5859 197.555 72.5156 195.414 70.375C193.273 68.2188 192.203 65.2188 192.203 61.375C192.203 57.3906 193.359 54.2344 195.672 51.9062C197.984 49.5781 200.828 48.4141 204.203 48.4141C207.703 48.4141 210.406 49.4531 212.312 51.5312C214.234 53.6094 215.195 56.4297 215.195 59.9922V63.1094ZM208.328 58.5625C208.328 55.125 206.938 53.4062 204.156 53.4062C202.969 53.4062 201.938 53.8984 201.062 54.8828C200.203 55.8672 199.68 57.0938 199.492 58.5625H208.328ZM218.781 71.7109V64.2109C220.141 65.3516 221.617 66.2109 223.211 66.7891C224.805 67.3516 226.414 67.6328 228.039 67.6328C228.992 67.6328 229.82 67.5469 230.523 67.375C231.242 67.2031 231.836 66.9688 232.305 66.6719C232.789 66.3594 233.148 66 233.383 65.5938C233.617 65.1719 233.734 64.7188 233.734 64.2344C233.734 63.5781 233.547 62.9922 233.172 62.4766C232.797 61.9609 232.281 61.4844 231.625 61.0469C230.984 60.6094 230.219 60.1875 229.328 59.7812C228.438 59.375 227.477 58.9609 226.445 58.5391C223.82 57.4453 221.859 56.1094 220.562 54.5312C219.281 52.9531 218.641 51.0469 218.641 48.8125C218.641 47.0625 218.992 45.5625 219.695 44.3125C220.398 43.0469 221.352 42.0078 222.555 41.1953C223.773 40.3828 225.18 39.7891 226.773 39.4141C228.367 39.0234 230.055 38.8281 231.836 38.8281C233.586 38.8281 235.133 38.9375 236.477 39.1562C237.836 39.3594 239.086 39.6797 240.227 40.1172V47.125C239.664 46.7344 239.047 46.3906 238.375 46.0938C237.719 45.7969 237.039 45.5547 236.336 45.3672C235.633 45.1641 234.93 45.0156 234.227 44.9219C233.539 44.8281 232.883 44.7812 232.258 44.7812C231.398 44.7812 230.617 44.8672 229.914 45.0391C229.211 45.1953 228.617 45.4219 228.133 45.7188C227.648 46.0156 227.273 46.375 227.008 46.7969C226.742 47.2031 226.609 47.6641 226.609 48.1797C226.609 48.7422 226.758 49.25 227.055 49.7031C227.352 50.1406 227.773 50.5625 228.32 50.9688C228.867 51.3594 229.531 51.75 230.312 52.1406C231.094 52.5156 231.977 52.9062 232.961 53.3125C234.305 53.875 235.508 54.4766 236.57 55.1172C237.648 55.7422 238.57 56.4531 239.336 57.25C240.102 58.0469 240.688 58.9609 241.094 59.9922C241.5 61.0078 241.703 62.1953 241.703 63.5547C241.703 65.4297 241.344 67.0078 240.625 68.2891C239.922 69.5547 238.961 70.5859 237.742 71.3828C236.523 72.1641 235.102 72.7266 233.477 73.0703C231.867 73.4141 230.164 73.5859 228.367 73.5859C226.523 73.5859 224.766 73.4297 223.094 73.1172C221.438 72.8047 220 72.3359 218.781 71.7109ZM269.547 73H262.164V59.3594C262.164 55.8438 260.883 54.0859 258.32 54.0859C257.008 54.0859 255.945 54.5781 255.133 55.5625C254.32 56.5469 253.914 57.7969 253.914 59.3125V73H246.508V37.4688H253.914V52.5625H254.008C255.82 49.7969 258.281 48.4141 261.391 48.4141C266.828 48.4141 269.547 51.6953 269.547 58.2578V73ZM286.867 73.5859C282.867 73.5859 279.719 72.4688 277.422 70.2344C275.141 67.9844 274 64.9375 274 61.0938C274 57.125 275.188 54.0234 277.562 51.7891C279.938 49.5391 283.148 48.4141 287.195 48.4141C291.18 48.4141 294.305 49.5391 296.57 51.7891C298.836 54.0234 299.969 56.9844 299.969 60.6719C299.969 64.6562 298.797 67.8047 296.453 70.1172C294.125 72.4297 290.93 73.5859 286.867 73.5859ZM287.055 54.0859C285.305 54.0859 283.945 54.6875 282.977 55.8906C282.008 57.0938 281.523 58.7969 281.523 61C281.523 65.6094 283.383 67.9141 287.102 67.9141C290.648 67.9141 292.422 65.5469 292.422 60.8125C292.422 56.3281 290.633 54.0859 287.055 54.0859ZM312.273 70.2109H312.18V84.0391H304.773V49H312.18V52.6094H312.273C314.102 49.8125 316.672 48.4141 319.984 48.4141C323.094 48.4141 325.492 49.4844 327.18 51.625C328.883 53.75 329.734 56.6484 329.734 60.3203C329.734 64.3203 328.742 67.5312 326.758 69.9531C324.789 72.375 322.164 73.5859 318.883 73.5859C315.992 73.5859 313.789 72.4609 312.273 70.2109ZM312.062 60.3672V62.2891C312.062 63.9453 312.5 65.2969 313.375 66.3438C314.25 67.3906 315.398 67.9141 316.82 67.9141C318.508 67.9141 319.812 67.2656 320.734 65.9688C321.672 64.6562 322.141 62.8047 322.141 60.4141C322.141 56.1953 320.5 54.0859 317.219 54.0859C315.703 54.0859 314.461 54.6641 313.492 55.8203C312.539 56.9609 312.062 58.4766 312.062 60.3672Z" fill="#E02A63"/>
<defs>
<clipPath id="clip0_3_6">
<rect width="100" height="105" fill="white"/>
</clipPath>
</defs>
</svg>
