<svg width="352" height="91" viewBox="0 0 352 91" fill="none" xmlns="http://www.w3.org/2000/svg">
<g clip-path="url(#clip0_3_6)">
<path d="M84.8907 23.0252C84.88 23.006 84.8717 22.9864 84.8604 22.9674C84.8556 22.9593 84.8497 22.952 84.8448 22.944C84.2563 21.9783 83.409 21.1802 82.3905 20.632L46.224 1.17524C45.2385 0.64919 44.1287 0.373032 43.0001 0.373032C41.8715 0.373032 40.7617 0.64919 39.7762 1.17524L3.60892 20.6322C2.58656 21.1829 1.73697 21.9853 1.14834 22.9561C1.14202 22.9666 1.13439 22.9762 1.12817 22.987C1.11814 23.0041 1.11091 23.0219 1.10128 23.0392C0.549028 23.9778 0.258375 25.0364 0.257233 26.1135V64.8866C0.25814 66.0023 0.568994 67.0978 1.15798 68.0609C1.74697 69.0241 2.59295 69.8203 3.60934 70.368L39.7766 89.825C40.6877 90.3121 41.707 90.5844 42.7501 90.6195C42.8248 90.6251 42.8993 90.6316 42.9754 90.6324H43.0051C43.1087 90.6324 43.2108 90.6266 43.312 90.6176C44.3339 90.5741 45.331 90.3026 46.2236 89.8248L82.3905 70.368C83.407 69.8203 84.253 69.0242 84.842 68.061C85.431 67.0979 85.7418 66.0023 85.7426 64.8866V26.1135C85.7416 25.031 85.4482 23.9672 84.8907 23.0252ZM42.9999 6.65668L75.7735 24.2881L63.1889 31.1258L30.0291 13.6346L42.9999 6.65668ZM43.374 41.8922L10.2766 24.261L23.2884 17.261L56.4818 34.7701L43.374 41.8922ZM46.3379 82.5477L46.6613 47.3392L59.8596 40.1679V55.1344C59.8596 55.9683 60.206 56.7682 60.8226 57.3579C61.4392 57.9476 62.2755 58.2789 63.1475 58.2789C64.0195 58.2789 64.8558 57.9476 65.4724 57.3579C66.089 56.7682 66.4354 55.9683 66.4354 55.1344V36.595L79.1668 29.6776V64.8866L46.3379 82.5477Z" fill="#E02A63"/>
</g>
<path d="M128.445 38.5547H118.859V66H111.266V38.5547H101.727V32.3906H128.445V38.5547ZM135.992 38.2031C134.742 38.2031 133.719 37.8359 132.922 37.1016C132.125 36.3516 131.727 35.4375 131.727 34.3594C131.727 33.25 132.125 32.3438 132.922 31.6406C133.719 30.9375 134.742 30.5859 135.992 30.5859C137.258 30.5859 138.281 30.9375 139.062 31.6406C139.859 32.3438 140.258 33.25 140.258 34.3594C140.258 35.4844 139.859 36.4062 139.062 37.125C138.281 37.8438 137.258 38.2031 135.992 38.2031ZM139.648 66H132.242V42H139.648V66ZM164.07 65.1328C162.398 66.1016 159.984 66.5859 156.828 66.5859C153.141 66.5859 150.156 65.4688 147.875 63.2344C145.594 61 144.453 58.1172 144.453 54.5859C144.453 50.5078 145.672 47.2969 148.109 44.9531C150.562 42.5938 153.836 41.4141 157.93 41.4141C160.758 41.4141 162.805 41.7891 164.07 42.5391V48.8203C162.523 47.6641 160.797 47.0859 158.891 47.0859C156.766 47.0859 155.078 47.7109 153.828 48.9609C152.594 50.1953 151.977 51.9062 151.977 54.0938C151.977 56.2188 152.57 57.8906 153.758 59.1094C154.945 60.3125 156.578 60.9141 158.656 60.9141C160.5 60.9141 162.305 60.3359 164.07 59.1797V65.1328ZM191.352 38.5547H181.766V66H174.172V38.5547H164.633V32.3906H191.352V38.5547ZM211.039 66H204.031V62.5547H203.938C202.328 65.2422 199.945 66.5859 196.789 66.5859C194.461 66.5859 192.625 65.9297 191.281 64.6172C189.953 63.2891 189.289 61.5234 189.289 59.3203C189.289 54.6641 192.047 51.9766 197.562 51.2578L204.078 50.3906C204.078 47.7656 202.656 46.4531 199.812 46.4531C196.953 46.4531 194.234 47.3047 191.656 49.0078V43.4297C192.688 42.8984 194.094 42.4297 195.875 42.0234C197.672 41.6172 199.305 41.4141 200.773 41.4141C207.617 41.4141 211.039 44.8281 211.039 51.6562V66ZM204.078 56.25V54.6328L199.719 55.1953C197.312 55.5078 196.109 56.5938 196.109 58.4531C196.109 59.2969 196.398 59.9922 196.977 60.5391C197.57 61.0703 198.367 61.3359 199.367 61.3359C200.758 61.3359 201.891 60.8594 202.766 59.9062C203.641 58.9375 204.078 57.7188 204.078 56.25ZM235.086 65.1328C233.414 66.1016 231 66.5859 227.844 66.5859C224.156 66.5859 221.172 65.4688 218.891 63.2344C216.609 61 215.469 58.1172 215.469 54.5859C215.469 50.5078 216.688 47.2969 219.125 44.9531C221.578 42.5938 224.852 41.4141 228.945 41.4141C231.773 41.4141 233.82 41.7891 235.086 42.5391V48.8203C233.539 47.6641 231.812 47.0859 229.906 47.0859C227.781 47.0859 226.094 47.7109 224.844 48.9609C223.609 50.1953 222.992 51.9062 222.992 54.0938C222.992 56.2188 223.586 57.8906 224.773 59.1094C225.961 60.3125 227.594 60.9141 229.672 60.9141C231.516 60.9141 233.32 60.3359 235.086 59.1797V65.1328ZM239.141 64.7109V57.2109C240.5 58.3516 241.977 59.2109 243.57 59.7891C245.164 60.3516 246.773 60.6328 248.398 60.6328C249.352 60.6328 250.18 60.5469 250.883 60.375C251.602 60.2031 252.195 59.9688 252.664 59.6719C253.148 59.3594 253.508 59 253.742 58.5938C253.977 58.1719 254.094 57.7188 254.094 57.2344C254.094 56.5781 253.906 55.9922 253.531 55.4766C253.156 54.9609 252.641 54.4844 251.984 54.0469C251.344 53.6094 250.578 53.1875 249.688 52.7812C248.797 52.375 247.836 51.9609 246.805 51.5391C244.18 50.4453 242.219 49.1094 240.922 47.5312C239.641 45.9531 239 44.0469 239 41.8125C239 40.0625 239.352 38.5625 240.055 37.3125C240.758 36.0469 241.711 35.0078 242.914 34.1953C244.133 33.3828 245.539 32.7891 247.133 32.4141C248.727 32.0234 250.414 31.8281 252.195 31.8281C253.945 31.8281 255.492 31.9375 256.836 32.1562C258.195 32.3594 259.445 32.6797 260.586 33.1172V40.125C260.023 39.7344 259.406 39.3906 258.734 39.0938C258.078 38.7969 257.398 38.5547 256.695 38.3672C255.992 38.1641 255.289 38.0156 254.586 37.9219C253.898 37.8281 253.242 37.7812 252.617 37.7812C251.758 37.7812 250.977 37.8672 250.273 38.0391C249.57 38.1953 248.977 38.4219 248.492 38.7188C248.008 39.0156 247.633 39.375 247.367 39.7969C247.102 40.2031 246.969 40.6641 246.969 41.1797C246.969 41.7422 247.117 42.25 247.414 42.7031C247.711 43.1406 248.133 43.5625 248.68 43.9688C249.227 44.3594 249.891 44.75 250.672 45.1406C251.453 45.5156 252.336 45.9062 253.32 46.3125C254.664 46.875 255.867 47.4766 256.93 48.1172C258.008 48.7422 258.93 49.4531 259.695 50.25C260.461 51.0469 261.047 51.9609 261.453 52.9922C261.859 54.0078 262.062 55.1953 262.062 56.5547C262.062 58.4297 261.703 60.0078 260.984 61.2891C260.281 62.5547 259.32 63.5859 258.102 64.3828C256.883 65.1641 255.461 65.7266 253.836 66.0703C252.227 66.4141 250.523 66.5859 248.727 66.5859C246.883 66.5859 245.125 66.4297 243.453 66.1172C241.797 65.8047 240.359 65.3359 239.141 64.7109ZM289.906 66H282.523V52.3594C282.523 48.8438 281.242 47.0859 278.68 47.0859C277.367 47.0859 276.305 47.5781 275.492 48.5625C274.68 49.5469 274.273 50.7969 274.273 52.3125V66H266.867V30.4688H274.273V45.5625H274.367C276.18 42.7969 278.641 41.4141 281.75 41.4141C287.188 41.4141 289.906 44.6953 289.906 51.2578V66ZM307.227 66.5859C303.227 66.5859 300.078 65.4688 297.781 63.2344C295.5 60.9844 294.359 57.9375 294.359 54.0938C294.359 50.125 295.547 47.0234 297.922 44.7891C300.297 42.5391 303.508 41.4141 307.555 41.4141C311.539 41.4141 314.664 42.5391 316.93 44.7891C319.195 47.0234 320.328 49.9844 320.328 53.6719C320.328 57.6562 319.156 60.8047 316.812 63.1172C314.484 65.4297 311.289 66.5859 307.227 66.5859ZM307.414 47.0859C305.664 47.0859 304.305 47.6875 303.336 48.8906C302.367 50.0938 301.883 51.7969 301.883 54C301.883 58.6094 303.742 60.9141 307.461 60.9141C311.008 60.9141 312.781 58.5469 312.781 53.8125C312.781 49.3281 310.992 47.0859 307.414 47.0859ZM332.633 63.2109H332.539V77.0391H325.133V42H332.539V45.6094H332.633C334.461 42.8125 337.031 41.4141 340.344 41.4141C343.453 41.4141 345.852 42.4844 347.539 44.625C349.242 46.75 350.094 49.6484 350.094 53.3203C350.094 57.3203 349.102 60.5312 347.117 62.9531C345.148 65.375 342.523 66.5859 339.242 66.5859C336.352 66.5859 334.148 65.4609 332.633 63.2109ZM332.422 53.3672V55.2891C332.422 56.9453 332.859 58.2969 333.734 59.3438C334.609 60.3906 335.758 60.9141 337.18 60.9141C338.867 60.9141 340.172 60.2656 341.094 58.9688C342.031 57.6562 342.5 55.8047 342.5 53.4141C342.5 49.1953 340.859 47.0859 337.578 47.0859C336.062 47.0859 334.82 47.6641 333.852 48.8203C332.898 49.9609 332.422 51.4766 332.422 53.3672Z" fill="#E02A63"/>
<defs>
<clipPath id="clip0_3_6">
<rect width="86" height="91" fill="white"/>
</clipPath>
</defs>
</svg>
